<?xml version="1.0" encoding="UTF-8"?>
<svg xmlns="http://www.w3.org/2000/svg" xmlns:xlink="http://www.w3.org/1999/xlink" width="26pt" height="26pt" viewBox="0 0 26 26" version="1.1">
<g id="surface1">
<path style=" stroke:none;fill-rule:nonzero;fill:#FFCC57;fill-opacity:1;" d="M 25.964844 7.640625 C 25.902344 6.261719 25.679688 5.3125 25.359375 4.488281 C 25.03125 3.613281 24.523438 2.832031 23.855469 2.183594 C 23.207031 1.523438 22.421875 1.011719 21.558594 0.683594 C 20.730469 0.367188 19.785156 0.140625 18.40625 0.0820312 C 17.011719 0.015625 16.570312 0 13.042969 0 C 9.515625 0 9.074219 0.015625 7.6875 0.0742188 C 6.304688 0.136719 5.355469 0.359375 4.535156 0.679688 C 3.660156 1.011719 2.878906 1.519531 2.230469 2.183594 C 1.570312 2.832031 1.054688 3.621094 0.730469 4.484375 C 0.410156 5.3125 0.1875 6.253906 0.128906 7.636719 C 0.0625 9.027344 0.046875 9.46875 0.046875 12.996094 C 0.046875 16.527344 0.0625 16.96875 0.121094 18.355469 C 0.183594 19.734375 0.40625 20.683594 0.726562 21.507812 C 1.054688 22.378906 1.570312 23.160156 2.230469 23.8125 C 2.878906 24.472656 3.664062 24.984375 4.527344 25.308594 C 5.355469 25.628906 6.300781 25.851562 7.683594 25.914062 C 9.066406 25.976562 9.507812 25.988281 13.039062 25.988281 C 16.566406 25.988281 17.007812 25.976562 18.394531 25.914062 C 19.777344 25.851562 20.726562 25.628906 21.546875 25.308594 C 23.292969 24.632812 24.675781 23.253906 25.351562 21.507812 C 25.667969 20.679688 25.894531 19.734375 25.953125 18.355469 C 26.015625 16.96875 26.03125 16.527344 26.03125 12.996094 C 26.03125 9.46875 26.023438 9.027344 25.964844 7.640625 Z M 23.625 18.253906 C 23.566406 19.523438 23.355469 20.207031 23.175781 20.664062 C 22.742188 21.796875 21.84375 22.695312 20.710938 23.132812 C 20.253906 23.308594 19.5625 23.523438 18.296875 23.578125 C 16.925781 23.640625 16.515625 23.652344 13.046875 23.652344 C 9.582031 23.652344 9.164062 23.640625 7.796875 23.578125 C 6.527344 23.523438 5.84375 23.308594 5.386719 23.132812 C 4.824219 22.921875 4.308594 22.59375 3.894531 22.160156 C 3.460938 21.738281 3.132812 21.234375 2.925781 20.667969 C 2.746094 20.210938 2.535156 19.523438 2.476562 18.257812 C 2.417969 16.886719 2.402344 16.476562 2.402344 13.007812 C 2.402344 9.539062 2.417969 9.125 2.476562 7.757812 C 2.535156 6.488281 2.746094 5.804688 2.925781 5.347656 C 3.132812 4.78125 3.460938 4.269531 3.898438 3.851562 C 4.320312 3.421875 4.828125 3.09375 5.390625 2.882812 C 5.847656 2.707031 6.539062 2.492188 7.804688 2.4375 C 9.175781 2.375 9.585938 2.359375 13.054688 2.359375 C 16.527344 2.359375 16.9375 2.375 18.304688 2.4375 C 19.574219 2.492188 20.257812 2.707031 20.714844 2.882812 C 21.277344 3.09375 21.792969 3.421875 22.207031 3.851562 C 22.640625 4.273438 22.96875 4.78125 23.175781 5.347656 C 23.355469 5.804688 23.566406 6.492188 23.625 7.757812 C 23.683594 9.128906 23.699219 9.539062 23.699219 13.007812 C 23.699219 16.476562 23.683594 16.882812 23.625 18.253906 Z M 23.625 18.253906 "/>
<path style=" stroke:none;fill-rule:nonzero;fill:#FFCC57;fill-opacity:1;" d="M 13.042969 6.320312 C 9.355469 6.320312 6.367188 9.3125 6.367188 12.996094 C 6.367188 16.683594 9.355469 19.675781 13.042969 19.675781 C 16.730469 19.675781 19.71875 16.683594 19.71875 12.996094 C 19.71875 9.3125 16.730469 6.320312 13.042969 6.320312 Z M 13.042969 17.328125 C 10.652344 17.328125 8.710938 15.390625 8.710938 12.996094 C 8.710938 10.605469 10.652344 8.667969 13.042969 8.667969 C 15.433594 8.667969 17.375 10.605469 17.375 12.996094 C 17.375 15.390625 15.433594 17.328125 13.042969 17.328125 Z M 13.042969 17.328125 "/>
<path style=" stroke:none;fill-rule:nonzero;fill:#FFCC57;fill-opacity:1;" d="M 21.542969 6.058594 C 21.542969 6.917969 20.84375 7.617188 19.984375 7.617188 C 19.121094 7.617188 18.425781 6.917969 18.425781 6.058594 C 18.425781 5.195312 19.121094 4.5 19.984375 4.5 C 20.84375 4.5 21.542969 5.195312 21.542969 6.058594 Z M 21.542969 6.058594 "/>
</g>
</svg>
