<?xml version="1.0" encoding="UTF-8"?>
<svg xmlns="http://www.w3.org/2000/svg" xmlns:xlink="http://www.w3.org/1999/xlink" width="26pt" height="26pt" viewBox="0 0 26 26" version="1.1">
<g id="surface1">
<path style=" stroke:none;fill-rule:nonzero;fill:#FFCC57;fill-opacity:1;" d="M 22.191406 0 L 3.808594 0 C 1.707031 0 0 1.707031 0 3.808594 L 0 22.191406 C 0 24.292969 1.707031 26 3.808594 26 L 22.191406 26 C 24.292969 26 26 24.292969 26 22.191406 L 26 3.808594 C 26 1.707031 24.292969 0 22.191406 0 Z M 24.476562 22.191406 C 24.476562 23.453125 23.453125 24.476562 22.191406 24.476562 L 3.808594 24.476562 C 2.546875 24.476562 1.523438 23.453125 1.523438 22.191406 L 1.523438 3.808594 C 1.523438 2.546875 2.546875 1.523438 3.808594 1.523438 L 22.191406 1.523438 C 23.453125 1.523438 24.476562 2.546875 24.476562 3.808594 Z M 24.476562 22.191406 "/>
<path style=" stroke:none;fill-rule:nonzero;fill:#FFCC57;fill-opacity:1;" d="M 4.621094 21.429688 L 9.191406 21.429688 L 9.191406 10.664062 L 4.621094 10.664062 Z M 6.144531 12.1875 L 7.667969 12.1875 L 7.667969 19.90625 L 6.144531 19.90625 Z M 6.144531 12.1875 "/>
<path style=" stroke:none;fill-rule:nonzero;fill:#FFCC57;fill-opacity:1;" d="M 16.8125 10.664062 C 16.8125 10.664062 16.808594 10.664062 16.808594 10.664062 C 16.28125 10.664062 15.769531 10.753906 15.285156 10.921875 L 15.285156 10.664062 L 10.714844 10.664062 L 10.714844 21.429688 L 15.285156 21.429688 L 15.285156 15.996094 C 15.285156 15.574219 15.625 15.234375 16.046875 15.234375 C 16.46875 15.234375 16.808594 15.574219 16.808594 15.996094 L 16.808594 21.429688 L 21.378906 21.429688 L 21.378906 15.472656 C 21.378906 13.007812 19.378906 10.667969 16.8125 10.664062 Z M 19.855469 19.90625 L 18.332031 19.90625 L 18.332031 15.996094 C 18.332031 14.734375 17.308594 13.710938 16.046875 13.710938 C 14.785156 13.710938 13.761719 14.734375 13.761719 15.996094 L 13.761719 19.90625 L 12.238281 19.90625 L 12.238281 12.1875 L 13.761719 12.1875 L 13.761719 13.710938 L 14.980469 12.796875 C 15.511719 12.398438 16.144531 12.1875 16.808594 12.1875 L 16.8125 12.1875 C 18.433594 12.1875 19.855469 13.722656 19.855469 15.472656 Z M 19.855469 19.90625 "/>
<path style=" stroke:none;fill-rule:nonzero;fill:#FFCC57;fill-opacity:1;" d="M 4.621094 9.140625 L 9.191406 9.140625 L 9.191406 4.570312 L 4.621094 4.570312 Z M 6.144531 6.09375 L 7.667969 6.09375 L 7.667969 7.617188 L 6.144531 7.617188 Z M 6.144531 6.09375 "/>
</g>
</svg>
