<?xml version="1.0" encoding="UTF-8"?>
<svg xmlns="http://www.w3.org/2000/svg" xmlns:xlink="http://www.w3.org/1999/xlink" width="15pt" height="15pt" viewBox="0 0 15 15" version="1.1">
<g id="surface1">
<path style=" stroke:none;fill-rule:nonzero;fill:#FFCC57;fill-opacity:1;" d="M 14.6875 2.8125 L 0.3125 2.8125 C 0.140625 2.8125 0 2.953125 0 3.125 C 0 3.296875 0.140625 3.4375 0.3125 3.4375 L 14.6875 3.4375 C 14.859375 3.4375 15 3.296875 15 3.125 C 15 2.953125 14.859375 2.8125 14.6875 2.8125 Z M 14.6875 2.8125 "/>
<path style=" stroke:none;fill-rule:nonzero;fill:#FFCC57;fill-opacity:1;" d="M 14.6875 7.1875 L 0.3125 7.1875 C 0.140625 7.1875 0 7.328125 0 7.5 C 0 7.671875 0.140625 7.8125 0.3125 7.8125 L 14.6875 7.8125 C 14.859375 7.8125 15 7.671875 15 7.5 C 15 7.328125 14.859375 7.1875 14.6875 7.1875 Z M 14.6875 7.1875 "/>
<path style=" stroke:none;fill-rule:nonzero;fill:#FFCC57;fill-opacity:1;" d="M 14.6875 11.5625 L 0.3125 11.5625 C 0.140625 11.5625 0 11.703125 0 11.875 C 0 12.046875 0.140625 12.1875 0.3125 12.1875 L 14.6875 12.1875 C 14.859375 12.1875 15 12.046875 15 11.875 C 15 11.703125 14.859375 11.5625 14.6875 11.5625 Z M 14.6875 11.5625 "/>
</g>
</svg>
